PathFileType	4	(X/Y/Z)	/Users/itak/Documents/Research/Walk-IL/dataset/trc/00442_00167.trc
DataRate	CameraRate	NumFrames	NumMarkers	Units	OrigDataRate	OrigDataStartFrame	OrigNumFrames
100.000000	100.000000	4	53	mm	100.000000	396	529
Frame#	Time	RPSI			LPSI			L3			STRN			T10			C7			CLAV			RBAK			LBAK			LSHO			LUPA			LAEL			LAOL			LWTS			LWPS			LFRA			LIFD			LHPS			LHTS			RSHO			RUPA			RAEL			RAOL			RWTS			RWPS			RFRA			RIFD			RHTS			RHPS			RBHD			LFHD			RFHD			LBHD			LHIP			RHIP			RASI			LASI			LKNE			LTHI			LANK			LTIP			LTOE			LMT1			LMT5			LHEE			RKNE			RTHI			RANK			RTIP			RTOE			RMT1			RMT5			RHEE			
		X1	Y1	Z1	X2	Y2	Z2	X3	Y3	Z3	X4	Y4	Z4	X5	Y5	Z5	X6	Y6	Z6	X7	Y7	Z7	X8	Y8	Z8	X9	Y9	Z9	X10	Y10	Z10	X11	Y11	Z11	X12	Y12	Z12	X13	Y13	Z13	X14	Y14	Z14	X15	Y15	Z15	X16	Y16	Z16	X17	Y17	Z17	X18	Y18	Z18	X19	Y19	Z19	X20	Y20	Z20	X21	Y21	Z21	X22	Y22	Z22	X23	Y23	Z23	X24	Y24	Z24	X25	Y25	Z25	X26	Y26	Z26	X27	Y27	Z27	X28	Y28	Z28	X29	Y29	Z29	X30	Y30	Z30	X31	Y31	Z31	X32	Y32	Z32	X33	Y33	Z33	X34	Y34	Z34	X35	Y35	Z35	X36	Y36	Z36	X37	Y37	Z37	X38	Y38	Z38	X39	Y39	Z39	X40	Y40	Z40	X41	Y41	Z41	X42	Y42	Z42	X43	Y43	Z43	X44	Y44	Z44	X45	Y45	Z45	X46	Y46	Z46	X47	Y47	Z47	X48	Y48	Z48	X49	Y49	Z49	X50	Y50	Z50	X51	Y51	Z51	X52	Y52	Z52	X53	Y53	Z53	

397	3.96	739.6118774414062	908.4672241210938	784.4453735351562	843.3555908203125	890.2376708984375	690.6702880859375	763.3081665039062	997.6549072265625	754.7027587890625	979.1069946289062	1205.97705078125	914.7447509765625	739.6820068359375	1122.226196289062	747.8231811523438	777.3567504882812	1390.855712890625	805.149169921875	946.715087890625	1317.650268554688	884.65625	676.817626953125	1270.215698242188	853.3666381835938	801.08935546875	1343.56689453125	705.6502075195312	929.197998046875	1368.250732421875	685.0189208984375	953.9202270507812	1255.75244140625	584.8851318359375	957.29248046875	1045.1767578125	537.3509521484375	859.0125122070312	1040.455078125	572.0794677734375	973.5833740234375	822.779541015625	565.964111328125	951.2013549804688	827.5744018554688	495.6281433105469	963.5385131835938	956.716064453125	519.1494750976562	939.7144775390625	661.6494140625	530.5062866210938	937.3694458007812	747.89990234375	483.9253234863281	968.3132934570312	733.934814453125	546.209716796875	755.713134765625	1364.648071289062	975.7067260742188	707.8890380859375	1308.518676757812	1040.525146484375	710.9757690429688	1040.957641601562	1150.824340820312	682.5339965820312	1002.21484375	1097.080688476562	861.592041015625	874.732666015625	1187.218017578125	785.6622924804688	847.11865234375	1220.574340820312	723.1692504882812	986.865234375	1172.913940429688	900.65185546875	728.2205200195312	1236.333251953125	894.8375244140625	789.0088500976562	1229.51806640625	824.4342041015625	771.4707641601562	1247.444458007812	814.6431884765625	1591.482055664062	917.3117065429688	1011.336486816406	1596.934936523438	854.2724609375	943.5570678710938	1602.238403320312	965.3162231445312	893.2335205078125	1590.158325195312	757.73291015625	1033.715209960938	810.5159301757812	725.8500366210938	704.9310302734375	821.5179443359375	969.8568725585938	824.8068237304688	858.1728515625	1005.499450683594	1023.855895996094	859.49169921875	845.4407348632812	1181.31689453125	447.1806945800781	868.1633911132812	1143.904663085938	589.777587890625	827.1376953125	1314.902221679688	51.08855056762695	939.3980102539062	1247.24951171875	313.2906188964844	893.674560546875	1405.420532226562	168.4920196533203	1116.986694335938	1341.190185546875	130.05517578125	1097.422607421875	1411.726806640625	130.0330810546875	1012.493408203125	1247.663208007812	25.10557174682617	943.2256469726562	707.1421508789062	431.6352233886719	912.1567993164062	726.56787109375	683.4127807617188	990.5699462890625	563.0346069335938	53.69918441772461	768.1483154296875	661.3887329101562	291.6664428710938	879.7103271484375	768.397705078125	38.87146377563477	846.9444580078125	732.5736083984375	46.625732421875	785.25732421875	654.2130737304688	41.00143814086914	862.1307983398438	534.0106201171875	60.46207809448242	692.4453125	
398	3.97	751.4835205078125	906.5276489257812	788.8865356445312	855.9033203125	888.1897583007812	695.9658203125	774.7618408203125	995.0692138671875	759.041015625	989.6842651367188	1204.085571289062	920.5151977539062	750.6830444335938	1119.577514648438	751.9794311523438	787.8546752929688	1388.161010742188	809.760986328125	957.0801391601562	1315.602661132812	889.9946899414062	687.3306274414062	1267.374755859375	857.584228515625	811.9832153320312	1340.818237304688	710.41748046875	940.095703125	1365.841430664062	690.0091552734375	965.3052368164062	1252.852905273438	590.4483032226562	969.2636108398438	1042.315063476562	543.8555297851562	871.0230712890625	1037.597900390625	578.7841796875	984.228759765625	819.4380493164062	570.920166015625	961.927734375	825.1900634765625	500.6559448242188	975.0660400390625	954.005126953125	525.1943969726562	948.709716796875	659.0546264648438	533.3573608398438	947.323974609375	745.8817749023438	488.0069580078125	978.0628051757812	730.7871704101562	550.1453247070312	765.6065673828125	1361.838012695312	980.3694458007812	717.888671875	1305.437622070312	1045.109252929688	721.7755737304688	1037.80126953125	1155.075927734375	693.528564453125	998.8981323242188	1101.130493164062	871.8178100585938	871.445556640625	1192.135620117188	795.7824096679688	844.0205688476562	1225.1552734375	733.7171020507812	983.63671875	1177.177856445312	910.4765014648438	725.0313720703125	1241.712036132812	904.7271118164062	785.7365112304688	1234.929077148438	833.9864501953125	768.0944213867188	1251.965454101562	824.9853515625	1589.32177734375	921.7213745117188	1021.781616210938	1594.44775390625	859.0057373046875	953.8494262695312	1599.93603515625	969.91552734375	903.8218383789062	1587.77880859375	762.2622680664062	1046.139526367188	808.9596557617188	732.7056884765625	714.6809692382812	819.9421997070312	973.9025268554688	834.3271484375	856.0782470703125	1010.742126464844	1034.785400390625	857.651123046875	852.2677001953125	1193.173950195312	445.8443908691406	875.9033203125	1155.814086914062	588.3491821289062	834.7448120117188	1327.940673828125	50.19837951660156	948.9487915039062	1259.534301757812	312.0484924316406	902.1047973632812	1417.442260742188	169.0949249267578	1125.968139648438	1353.52783203125	130.08984375	1106.622192382812	1424.1787109375	130.1265258789062	1021.737365722656	1260.908203125	23.73890686035156	952.7749633789062	713.6326904296875	430.63330078125	916.0723266601562	735.0863037109375	681.841552734375	994.9016723632812	563.4392700195312	55.94014358520508	768.7133178710938	665.637939453125	291.7711486816406	882.3590087890625	768.3956298828125	38.86741256713867	847.0178833007812	732.7379150390625	46.87082672119141	785.5482788085938	654.4037475585938	41.047607421875	862.1939697265625	534.5762329101562	64.22275543212891	693.025390625	
399	3.98	763.54052734375	904.7067260742188	793.3770751953125	868.4915771484375	886.2532348632812	701.2725219726562	786.45263671875	992.6276245117188	763.525390625	1000.444030761719	1202.329833984375	926.3179931640625	762.0100708007812	1117.065551757812	756.2883911132812	798.5958862304688	1385.599609375	814.3480834960938	967.653564453125	1313.704345703125	895.3936767578125	698.0910034179688	1264.674194335938	861.7760620117188	823.1437377929688	1338.2294921875	715.2156372070312	951.262451171875	1363.653686523438	695.1017456054688	977.02099609375	1250.253540039062	596.07080078125	981.5216674804688	1039.719604492188	550.4159545898438	883.3123168945312	1034.991577148438	585.4996337890625	995.365478515625	816.3878173828125	576.2293090820312	973.1744995117188	823.0045166015625	506.0086975097656	986.9789428710938	951.539306640625	531.4033813476562	958.1636352539062	656.7201538085938	536.673095703125	957.8005981445312	744.0641479492188	492.4889221191406	988.2918090820312	727.8922729492188	554.517822265625	775.6783447265625	1359.217895507812	985.000244140625	727.9540405273438	1302.52392578125	1049.551879882812	732.4742431640625	1034.6669921875	1158.8232421875	704.5143432617188	995.7098999023438	1104.743896484375	881.8179931640625	868.0748291015625	1196.760864257812	805.6058349609375	840.8607177734375	1229.253784179688	744.0873413085938	980.4099731445312	1180.934448242188	919.8320922851562	721.6520385742188	1246.6240234375	914.224853515625	782.2681884765625	1239.963134765625	843.0206909179688	764.4739990234375	1255.833618164062	835.424072265625	1587.316528320312	926.1143798828125	1032.325073242188	1592.145629882812	863.7330322265625	964.249755859375	1597.836791992188	974.4984130859375	914.5136108398438	1585.544799804688	766.7697143554688	1058.534912109375	807.3607788085938	739.386962890625	724.7368774414062	818.4170532226562	977.9490356445312	844.1468505859375	854.0557250976562	1015.95166015625	1045.911499023438	855.85986328125	858.9400634765625	1205.097778320312	444.438720703125	883.6201171875	1167.819946289062	586.9467163085938	842.204833984375	1339.6064453125	48.54495620727539	957.4179077148438	1271.470703125	310.3372192382812	910.205322265625	1428.8818359375	168.2645874023438	1133.921508789062	1365.100708007812	128.927490234375	1114.86376953125	1435.66943359375	128.9849853515625	1029.881591796875	1272.685791015625	21.86748313903809	961.3333129882812	720.4017333984375	429.6870422363281	920.1819458007812	743.8768920898438	680.3628540039062	999.2736206054688	563.9486694335938	58.49297332763672	769.3991088867188	670.1047973632812	292.0517578125	885.2316284179688	768.416015625	38.86101913452148	847.10986328125	732.9542846679688	47.13561630249023	785.888671875	654.6714477539062	41.10754776000977	862.29296875	535.27099609375	68.44757080078125	693.7642211914062	
400	3.99	775.789306640625	902.9795532226562	797.9235229492188	881.1187133789062	884.3753662109375	706.5867919921875	798.3892211914062	990.3111572265625	768.1676635742188	1011.394165039062	1200.679443359375	932.1565551757812	773.6871337890625	1114.674926757812	760.7605590820312	809.6054077148438	1383.161254882812	818.9183959960938	978.458984375	1311.92724609375	900.861083984375	709.1176147460938	1262.10791015625	865.9454956054688	834.6013793945312	1335.791137695312	720.04541015625	962.7294311523438	1361.663208007812	700.3140258789062	989.0849609375	1247.9462890625	601.7488403320312	994.045654296875	1037.380493164062	556.9765014648438	895.8582763671875	1032.636108398438	592.1492919921875	1007.015869140625	813.6320190429688	581.8934326171875	984.9517211914062	820.9800415039062	511.6850891113281	999.2689819335938	949.2996826171875	537.7352905273438	968.1364135742188	654.6140747070312	540.5601196289062	968.8280029296875	742.3889770507812	497.4173583984375	999.0411987304688	725.2406616210938	559.3768310546875	785.9489135742188	1356.77587890625	989.6036987304688	738.0798950195312	1299.747436523438	1053.814208984375	743.0205688476562	1031.528076171875	1162.030029296875	715.4711303710938	992.663330078125	1107.936767578125	891.5947875976562	864.6400146484375	1201.099609375	815.1198120117188	837.6212768554688	1232.842041015625	754.2484741210938	977.1622314453125	1184.156372070312	928.7418823242188	718.0914306640625	1251.049560546875	923.3446044921875	778.6221313476562	1244.586791992188	851.6312255859375	760.6898193359375	1259.120483398438	845.9593505859375	1585.4462890625	930.493408203125	1042.959228515625	1590.028686523438	868.4420776367188	974.7452392578125	1595.9482421875	979.0607299804688	925.3023071289062	1583.4140625	771.2564697265625	1070.913208007812	805.6714477539062	745.8951416015625	735.1197509765625	816.943603515625	982.0291137695312	854.2999267578125	852.1029663085938	1021.138732910156	1057.273193359375	854.09326171875	865.4622192382812	1217.058837890625	442.9026489257812	891.302490234375	1179.892578125	585.5006713867188	849.5305786132812	1349.984741210938	46.15390396118164	964.8759155273438	1283.052124023438	308.1363830566406	917.999755859375	1439.676513671875	166.0508728027344	1141.010620117188	1375.86767578125	126.6142044067383	1122.238647460938	1446.232543945312	126.6297073364258	1037.089599609375	1283.05322265625	19.5826530456543	968.8948364257812	727.4224853515625	428.7971801757812	924.4833374023438	752.9506225585938	678.9892578125	1003.71240234375	564.5781860351562	61.35080337524414	770.217041015625	674.7807006835938	292.5118408203125	888.340576171875	768.4586791992188	38.85329055786133	847.2199096679688	733.22509765625	47.41251754760742	786.2889404296875	655.0130615234375	41.17663192749023	862.4395141601562	536.1200561523438	73.13677215576172	694.682861328125	
